<svg width="48" height="47" viewBox="0 0 48 47" fill="none" xmlns="http://www.w3.org/2000/svg">
<path fill-rule="evenodd" clip-rule="evenodd" d="M24 0C10.74 0 0 10.5712 0 23.6228C0 34.0758 6.87 42.9049 16.41 46.0349C17.61 46.2416 18.06 45.5329 18.06 44.9128C18.06 44.3518 18.03 42.4915 18.03 40.5131C12 41.6056 10.44 39.0662 9.96 37.7374C9.69 37.0582 8.52 34.9617 7.5 34.4007C6.66 33.9577 5.46 32.8652 7.47 32.8357C9.36 32.8061 10.71 34.5483 11.16 35.257C13.32 38.8299 16.77 37.826 18.15 37.2059C18.36 35.6704 18.99 34.6369 19.68 34.0463C14.34 33.4557 8.76 31.4183 8.76 22.3826C8.76 19.8136 9.69 17.6875 11.22 16.034C10.98 15.4434 10.14 13.0221 11.46 9.77392C11.46 9.77392 13.47 9.15382 18.06 12.1953C19.98 11.6637 22.02 11.398 24.06 11.398C26.1 11.398 28.14 11.6637 30.06 12.1953C34.65 9.1243 36.66 9.77392 36.66 9.77392C37.98 13.0221 37.14 15.4434 36.9 16.034C38.43 17.6875 39.36 19.7841 39.36 22.3826C39.36 31.4478 33.75 33.4557 28.41 34.0463C29.28 34.7845 30.03 36.2019 30.03 38.4165C30.03 41.5761 30 44.1155 30 44.9128C30 45.5329 30.45 46.2711 31.65 46.0349C41.13 42.9049 48 34.0463 48 23.6228C48 10.5712 37.26 0 24 0Z" fill="black"/>
</svg>
